<?xml version="1.0" encoding="UTF-8" standalone="no"?>
<!-- Generator: Adobe Illustrator 16.0.0, SVG Export Plug-In . SVG Version: 6.00 Build 0)  -->

<svg
   xmlns:dc="http://purl.org/dc/elements/1.1/"
   xmlns:cc="http://creativecommons.org/ns#"
   xmlns:rdf="http://www.w3.org/1999/02/22-rdf-syntax-ns#"
   xmlns:svg="http://www.w3.org/2000/svg"
   xmlns="http://www.w3.org/2000/svg"
   xmlns:sodipodi="http://sodipodi.sourceforge.net/DTD/sodipodi-0.dtd"
   xmlns:inkscape="http://www.inkscape.org/namespaces/inkscape"
   version="1.1"
   id="Layer_1"
   x="0px"
   y="0px"
   width="1400px"
   height="1980px"
   viewBox="0 0 1400 1980"
   enable-background="new 0 0 1400 1980"
   xml:space="preserve"
   sodipodi:docname="avatar.svg"
   inkscape:export-filename="/home/developer/portafolio/avg-bateo-/art/avatar.png"
   inkscape:export-xdpi="25.018183"
   inkscape:export-ydpi="25.018183"
   inkscape:version="0.92.4 (5da689c313, 2019-01-14)"><metadata
   id="metadata568"><rdf:RDF><cc:Work
       rdf:about=""><dc:format>image/svg+xml</dc:format><dc:type
         rdf:resource="http://purl.org/dc/dcmitype/StillImage" /></cc:Work></rdf:RDF></metadata><defs
   id="defs566" /><sodipodi:namedview
   pagecolor="#ffffff"
   bordercolor="#666666"
   borderopacity="1"
   objecttolerance="10"
   gridtolerance="10"
   guidetolerance="10"
   inkscape:pageopacity="0"
   inkscape:pageshadow="2"
   inkscape:window-width="1440"
   inkscape:window-height="871"
   id="namedview564"
   showgrid="false"
   inkscape:zoom="0.33712566"
   inkscape:cx="551.58021"
   inkscape:cy="990"
   inkscape:window-x="1024"
   inkscape:window-y="0"
   inkscape:window-maximized="1"
   inkscape:current-layer="Layer_1" />
<g
   id="g561">
	<radialGradient
   id="SVGID_1_"
   cx="700"
   cy="990"
   r="1317.3129"
   gradientUnits="userSpaceOnUse">
		<stop
   offset="0.2139"
   style="stop-color:#FFFCDD"
   id="stop2" />
		<stop
   offset="0.4678"
   style="stop-color:#FEF8DA"
   id="stop4" />
		<stop
   offset="0.6193"
   style="stop-color:#F8EFD0"
   id="stop6" />
		<stop
   offset="0.7438"
   style="stop-color:#EFE2C1"
   id="stop8" />
		<stop
   offset="0.8531"
   style="stop-color:#E4D1AD"
   id="stop10" />
		<stop
   offset="0.9455"
   style="stop-color:#D7BE97"
   id="stop12" />
	</radialGradient>
	<rect
   fill="url(#SVGID_1_)"
   width="1400"
   height="1980"
   id="rect15" />
	<polygon
   opacity="0.3"
   fill="#FFFDEB"
   points="1373.002,119.608 962.336,238.343 962.336,246.532 1373.002,127.796  "
   id="polygon17" />
	<linearGradient
   id="SVGID_2_"
   gradientUnits="userSpaceOnUse"
   x1="836.418"
   y1="100.2295"
   x2="740.418"
   y2="636.2296">
		<stop
   offset="0.1341"
   style="stop-color:#FFFCDD"
   id="stop19" />
		<stop
   offset="0.3843"
   style="stop-color:#FEF8DA"
   id="stop21" />
		<stop
   offset="0.5336"
   style="stop-color:#F8EFD0"
   id="stop23" />
		<stop
   offset="0.6563"
   style="stop-color:#EFE2C1"
   id="stop25" />
		<stop
   offset="0.7641"
   style="stop-color:#E4D1AD"
   id="stop27" />
		<stop
   offset="0.855"
   style="stop-color:#D7BE97"
   id="stop29" />
	</linearGradient>
	<polygon
   fill="url(#SVGID_2_)"
   points="0,1162.689 1400,1162.689 1400,156.313 0,561.094  "
   id="polygon32" />
	<linearGradient
   id="SVGID_3_"
   gradientUnits="userSpaceOnUse"
   x1="874.4648"
   y1="410.9678"
   x2="817.4678"
   y2="610.4575">
		<stop
   offset="0.1341"
   style="stop-color:#FFFCDD"
   id="stop34" />
		<stop
   offset="0.3843"
   style="stop-color:#FEF8DA"
   id="stop36" />
		<stop
   offset="0.5336"
   style="stop-color:#F8EFD0"
   id="stop38" />
		<stop
   offset="0.6563"
   style="stop-color:#EFE2C1"
   id="stop40" />
		<stop
   offset="0.7641"
   style="stop-color:#E4D1AD"
   id="stop42" />
		<stop
   offset="0.855"
   style="stop-color:#D7BE97"
   id="stop44" />
	</linearGradient>
	<polygon
   fill="url(#SVGID_3_)"
   points="1400,1824.072 0,1824.072 0,219.127 1400,623.909  "
   id="polygon47" />
	<linearGradient
   id="SVGID_4_"
   gradientUnits="userSpaceOnUse"
   x1="862.1211"
   y1="436.6147"
   x2="748.1212"
   y2="930.6147">
		<stop
   offset="0.1341"
   style="stop-color:#FDB714"
   id="stop49" />
		<stop
   offset="0.3497"
   style="stop-color:#FDB515"
   id="stop51" />
		<stop
   offset="0.4784"
   style="stop-color:#FBAF17"
   id="stop53" />
		<stop
   offset="0.5842"
   style="stop-color:#FAA41A"
   id="stop55" />
		<stop
   offset="0.6776"
   style="stop-color:#F8961D"
   id="stop57" />
		<stop
   offset="0.7628"
   style="stop-color:#F5841F"
   id="stop59" />
		<stop
   offset="0.841"
   style="stop-color:#F36D21"
   id="stop61" />
		<stop
   offset="0.855"
   style="stop-color:#F26722"
   id="stop63" />
	</linearGradient>
	<polygon
   fill="url(#SVGID_4_)"
   points="1400,1941.613 0,1941.613 0,336.668 1400,741.45  "
   id="polygon66" />
	<linearGradient
   id="SVGID_5_"
   gradientUnits="userSpaceOnUse"
   x1="466.3066"
   y1="630.272"
   x2="656.7408"
   y2="1316.6721">
		<stop
   offset="0.1341"
   style="stop-color:#FDB714"
   id="stop68" />
		<stop
   offset="0.3497"
   style="stop-color:#FDB515"
   id="stop70" />
		<stop
   offset="0.4784"
   style="stop-color:#FBAF17"
   id="stop72" />
		<stop
   offset="0.5842"
   style="stop-color:#FAA41A"
   id="stop74" />
		<stop
   offset="0.6776"
   style="stop-color:#F8961D"
   id="stop76" />
		<stop
   offset="0.7628"
   style="stop-color:#F5841F"
   id="stop78" />
		<stop
   offset="0.841"
   style="stop-color:#F36D21"
   id="stop80" />
		<stop
   offset="0.855"
   style="stop-color:#F26722"
   id="stop82" />
	</linearGradient>
	<polygon
   fill="url(#SVGID_5_)"
   points="1400,1941.613 0,1941.613 0,598.795 1400,1003.576  "
   id="polygon85" />
	<polygon
   fill="#431F45"
   points="1109.93,400.482 145.999,679.184 145.999,684.584 1109.93,405.882  "
   id="polygon87" />
	<polygon
   opacity="0.3"
   fill="#FFFDEB"
   points="363.47,488.643 1327.4,767.344 1327.4,772.744 363.47,494.042  "
   id="polygon89" />
	<g
   opacity="0.7"
   id="g346">
		<radialGradient
   id="SVGID_6_"
   cx="996.9893"
   cy="1016.3047"
   r="300.5302"
   gradientUnits="userSpaceOnUse">
			<stop
   offset="0.1341"
   style="stop-color:#FFFCDD"
   id="stop91" />
			<stop
   offset="0.3843"
   style="stop-color:#FEF8DA"
   id="stop93" />
			<stop
   offset="0.5336"
   style="stop-color:#F8EFD0"
   id="stop95" />
			<stop
   offset="0.6563"
   style="stop-color:#EFE2C1"
   id="stop97" />
			<stop
   offset="0.7641"
   style="stop-color:#E4D1AD"
   id="stop99" />
			<stop
   offset="0.855"
   style="stop-color:#D7BE97"
   id="stop101" />
		</radialGradient>
		<polygon
   fill="url(#SVGID_6_)"
   points="1260.619,947.359 733.359,1100.055 1227.859,932.555   "
   id="polygon104" />
		<radialGradient
   id="SVGID_7_"
   cx="986.3486"
   cy="1004.4297"
   r="290.1351"
   gradientUnits="userSpaceOnUse">
			<stop
   offset="0.1341"
   style="stop-color:#FFFCDD"
   id="stop106" />
			<stop
   offset="0.3843"
   style="stop-color:#FEF8DA"
   id="stop108" />
			<stop
   offset="0.5336"
   style="stop-color:#F8EFD0"
   id="stop110" />
			<stop
   offset="0.6563"
   style="stop-color:#EFE2C1"
   id="stop112" />
			<stop
   offset="0.7641"
   style="stop-color:#E4D1AD"
   id="stop114" />
			<stop
   offset="0.855"
   style="stop-color:#D7BE97"
   id="stop116" />
		</radialGradient>
		<polygon
   fill="url(#SVGID_7_)"
   points="1240.839,937.954 731.858,1085.349 1209.016,923.512   "
   id="polygon119" />
		<radialGradient
   id="SVGID_8_"
   cx="975.708"
   cy="992.5557"
   r="279.74"
   gradientUnits="userSpaceOnUse">
			<stop
   offset="0.1341"
   style="stop-color:#FFFCDD"
   id="stop121" />
			<stop
   offset="0.3843"
   style="stop-color:#FEF8DA"
   id="stop123" />
			<stop
   offset="0.5336"
   style="stop-color:#F8EFD0"
   id="stop125" />
			<stop
   offset="0.6563"
   style="stop-color:#EFE2C1"
   id="stop127" />
			<stop
   offset="0.7641"
   style="stop-color:#E4D1AD"
   id="stop129" />
			<stop
   offset="0.855"
   style="stop-color:#D7BE97"
   id="stop131" />
		</radialGradient>
		<polygon
   fill="url(#SVGID_8_)"
   points="1221.059,928.549 730.357,1070.644 1190.172,914.468   "
   id="polygon134" />
		<radialGradient
   id="SVGID_9_"
   cx="965.0674"
   cy="980.6816"
   r="269.3447"
   gradientUnits="userSpaceOnUse">
			<stop
   offset="0.1341"
   style="stop-color:#FFFCDD"
   id="stop136" />
			<stop
   offset="0.3843"
   style="stop-color:#FEF8DA"
   id="stop138" />
			<stop
   offset="0.5336"
   style="stop-color:#F8EFD0"
   id="stop140" />
			<stop
   offset="0.6563"
   style="stop-color:#EFE2C1"
   id="stop142" />
			<stop
   offset="0.7641"
   style="stop-color:#E4D1AD"
   id="stop144" />
			<stop
   offset="0.855"
   style="stop-color:#D7BE97"
   id="stop146" />
		</radialGradient>
		<polygon
   fill="url(#SVGID_9_)"
   points="1201.278,919.144 728.856,1055.938 1171.328,905.425   "
   id="polygon149" />
		<radialGradient
   id="SVGID_10_"
   cx="954.4268"
   cy="968.8076"
   r="258.9497"
   gradientUnits="userSpaceOnUse">
			<stop
   offset="0.1341"
   style="stop-color:#FFFCDD"
   id="stop151" />
			<stop
   offset="0.3843"
   style="stop-color:#FEF8DA"
   id="stop153" />
			<stop
   offset="0.5336"
   style="stop-color:#F8EFD0"
   id="stop155" />
			<stop
   offset="0.6563"
   style="stop-color:#EFE2C1"
   id="stop157" />
			<stop
   offset="0.7641"
   style="stop-color:#E4D1AD"
   id="stop159" />
			<stop
   offset="0.855"
   style="stop-color:#D7BE97"
   id="stop161" />
		</radialGradient>
		<polygon
   fill="url(#SVGID_10_)"
   points="1181.498,909.739 727.355,1041.232 1152.484,896.382   "
   id="polygon164" />
		<radialGradient
   id="SVGID_11_"
   cx="943.7861"
   cy="956.9326"
   r="248.5547"
   gradientUnits="userSpaceOnUse">
			<stop
   offset="0.1341"
   style="stop-color:#FFFCDD"
   id="stop166" />
			<stop
   offset="0.3843"
   style="stop-color:#FEF8DA"
   id="stop168" />
			<stop
   offset="0.5336"
   style="stop-color:#F8EFD0"
   id="stop170" />
			<stop
   offset="0.6563"
   style="stop-color:#EFE2C1"
   id="stop172" />
			<stop
   offset="0.7641"
   style="stop-color:#E4D1AD"
   id="stop174" />
			<stop
   offset="0.855"
   style="stop-color:#D7BE97"
   id="stop176" />
		</radialGradient>
		<polygon
   fill="url(#SVGID_11_)"
   points="1161.718,900.334 725.854,1026.526 1133.641,887.339   "
   id="polygon179" />
		<radialGradient
   id="SVGID_12_"
   cx="933.1455"
   cy="945.0581"
   r="238.1595"
   gradientUnits="userSpaceOnUse">
			<stop
   offset="0.1341"
   style="stop-color:#FFFCDD"
   id="stop181" />
			<stop
   offset="0.3843"
   style="stop-color:#FEF8DA"
   id="stop183" />
			<stop
   offset="0.5336"
   style="stop-color:#F8EFD0"
   id="stop185" />
			<stop
   offset="0.6563"
   style="stop-color:#EFE2C1"
   id="stop187" />
			<stop
   offset="0.7641"
   style="stop-color:#E4D1AD"
   id="stop189" />
			<stop
   offset="0.855"
   style="stop-color:#D7BE97"
   id="stop191" />
		</radialGradient>
		<polygon
   fill="url(#SVGID_12_)"
   points="1141.938,890.929 724.354,1011.82 1114.797,878.296   "
   id="polygon194" />
		<radialGradient
   id="SVGID_13_"
   cx="922.5049"
   cy="933.1841"
   r="227.7646"
   gradientUnits="userSpaceOnUse">
			<stop
   offset="0.1341"
   style="stop-color:#FFFCDD"
   id="stop196" />
			<stop
   offset="0.3843"
   style="stop-color:#FEF8DA"
   id="stop198" />
			<stop
   offset="0.5336"
   style="stop-color:#F8EFD0"
   id="stop200" />
			<stop
   offset="0.6563"
   style="stop-color:#EFE2C1"
   id="stop202" />
			<stop
   offset="0.7641"
   style="stop-color:#E4D1AD"
   id="stop204" />
			<stop
   offset="0.855"
   style="stop-color:#D7BE97"
   id="stop206" />
		</radialGradient>
		<polygon
   fill="url(#SVGID_13_)"
   points="1122.157,881.524 722.853,997.115 1095.953,869.253   "
   id="polygon209" />
		<radialGradient
   id="SVGID_14_"
   cx="911.8643"
   cy="921.3096"
   r="217.3696"
   gradientUnits="userSpaceOnUse">
			<stop
   offset="0.1341"
   style="stop-color:#FFFCDD"
   id="stop211" />
			<stop
   offset="0.3843"
   style="stop-color:#FEF8DA"
   id="stop213" />
			<stop
   offset="0.5336"
   style="stop-color:#F8EFD0"
   id="stop215" />
			<stop
   offset="0.6563"
   style="stop-color:#EFE2C1"
   id="stop217" />
			<stop
   offset="0.7641"
   style="stop-color:#E4D1AD"
   id="stop219" />
			<stop
   offset="0.855"
   style="stop-color:#D7BE97"
   id="stop221" />
		</radialGradient>
		<polygon
   fill="url(#SVGID_14_)"
   points="1102.377,872.119 721.352,982.409 1077.109,860.21   "
   id="polygon224" />
		<radialGradient
   id="SVGID_15_"
   cx="901.2236"
   cy="909.4351"
   r="206.9748"
   gradientUnits="userSpaceOnUse">
			<stop
   offset="0.1341"
   style="stop-color:#FFFCDD"
   id="stop226" />
			<stop
   offset="0.3843"
   style="stop-color:#FEF8DA"
   id="stop228" />
			<stop
   offset="0.5336"
   style="stop-color:#F8EFD0"
   id="stop230" />
			<stop
   offset="0.6563"
   style="stop-color:#EFE2C1"
   id="stop232" />
			<stop
   offset="0.7641"
   style="stop-color:#E4D1AD"
   id="stop234" />
			<stop
   offset="0.855"
   style="stop-color:#D7BE97"
   id="stop236" />
		</radialGradient>
		<polygon
   fill="url(#SVGID_15_)"
   points="1082.597,862.714 719.851,967.704 1058.266,851.167   "
   id="polygon239" />
		<radialGradient
   id="SVGID_16_"
   cx="890.583"
   cy="897.5605"
   r="196.58"
   gradientUnits="userSpaceOnUse">
			<stop
   offset="0.1341"
   style="stop-color:#FFFCDD"
   id="stop241" />
			<stop
   offset="0.3843"
   style="stop-color:#FEF8DA"
   id="stop243" />
			<stop
   offset="0.5336"
   style="stop-color:#F8EFD0"
   id="stop245" />
			<stop
   offset="0.6563"
   style="stop-color:#EFE2C1"
   id="stop247" />
			<stop
   offset="0.7641"
   style="stop-color:#E4D1AD"
   id="stop249" />
			<stop
   offset="0.855"
   style="stop-color:#D7BE97"
   id="stop251" />
		</radialGradient>
		<polygon
   fill="url(#SVGID_16_)"
   points="1062.816,853.31 718.35,952.998 1039.422,842.124   "
   id="polygon254" />
		<radialGradient
   id="SVGID_17_"
   cx="879.9424"
   cy="885.6865"
   r="186.185"
   gradientUnits="userSpaceOnUse">
			<stop
   offset="0.1341"
   style="stop-color:#FFFCDD"
   id="stop256" />
			<stop
   offset="0.3843"
   style="stop-color:#FEF8DA"
   id="stop258" />
			<stop
   offset="0.5336"
   style="stop-color:#F8EFD0"
   id="stop260" />
			<stop
   offset="0.6563"
   style="stop-color:#EFE2C1"
   id="stop262" />
			<stop
   offset="0.7641"
   style="stop-color:#E4D1AD"
   id="stop264" />
			<stop
   offset="0.855"
   style="stop-color:#D7BE97"
   id="stop266" />
		</radialGradient>
		<polygon
   fill="url(#SVGID_17_)"
   points="1043.036,843.904 716.849,938.292 1020.578,833.081   "
   id="polygon269" />
		<radialGradient
   id="SVGID_18_"
   cx="869.3018"
   cy="873.8115"
   r="175.7905"
   gradientUnits="userSpaceOnUse">
			<stop
   offset="0.1341"
   style="stop-color:#FFFCDD"
   id="stop271" />
			<stop
   offset="0.3843"
   style="stop-color:#FEF8DA"
   id="stop273" />
			<stop
   offset="0.5336"
   style="stop-color:#F8EFD0"
   id="stop275" />
			<stop
   offset="0.6563"
   style="stop-color:#EFE2C1"
   id="stop277" />
			<stop
   offset="0.7641"
   style="stop-color:#E4D1AD"
   id="stop279" />
			<stop
   offset="0.855"
   style="stop-color:#D7BE97"
   id="stop281" />
		</radialGradient>
		<polygon
   fill="url(#SVGID_18_)"
   points="1023.256,834.5 715.348,923.586 1001.734,824.037   "
   id="polygon284" />
		<radialGradient
   id="SVGID_19_"
   cx="858.6611"
   cy="861.9375"
   r="165.3958"
   gradientUnits="userSpaceOnUse">
			<stop
   offset="0.1341"
   style="stop-color:#FFFCDD"
   id="stop286" />
			<stop
   offset="0.3843"
   style="stop-color:#FEF8DA"
   id="stop288" />
			<stop
   offset="0.5336"
   style="stop-color:#F8EFD0"
   id="stop290" />
			<stop
   offset="0.6563"
   style="stop-color:#EFE2C1"
   id="stop292" />
			<stop
   offset="0.7641"
   style="stop-color:#E4D1AD"
   id="stop294" />
			<stop
   offset="0.855"
   style="stop-color:#D7BE97"
   id="stop296" />
		</radialGradient>
		<polygon
   fill="url(#SVGID_19_)"
   points="1003.476,825.094 713.847,908.881 982.891,814.994   "
   id="polygon299" />
		<radialGradient
   id="SVGID_20_"
   cx="848.0205"
   cy="850.063"
   r="155.0012"
   gradientUnits="userSpaceOnUse">
			<stop
   offset="0.1341"
   style="stop-color:#FFFCDD"
   id="stop301" />
			<stop
   offset="0.3843"
   style="stop-color:#FEF8DA"
   id="stop303" />
			<stop
   offset="0.5336"
   style="stop-color:#F8EFD0"
   id="stop305" />
			<stop
   offset="0.6563"
   style="stop-color:#EFE2C1"
   id="stop307" />
			<stop
   offset="0.7641"
   style="stop-color:#E4D1AD"
   id="stop309" />
			<stop
   offset="0.855"
   style="stop-color:#D7BE97"
   id="stop311" />
		</radialGradient>
		<polygon
   fill="url(#SVGID_20_)"
   points="983.695,815.689 712.346,894.175 964.047,805.951   "
   id="polygon314" />
		<radialGradient
   id="SVGID_21_"
   cx="837.3799"
   cy="838.1885"
   r="144.6069"
   gradientUnits="userSpaceOnUse">
			<stop
   offset="0.1341"
   style="stop-color:#FFFCDD"
   id="stop316" />
			<stop
   offset="0.3843"
   style="stop-color:#FEF8DA"
   id="stop318" />
			<stop
   offset="0.5336"
   style="stop-color:#F8EFD0"
   id="stop320" />
			<stop
   offset="0.6563"
   style="stop-color:#EFE2C1"
   id="stop322" />
			<stop
   offset="0.7641"
   style="stop-color:#E4D1AD"
   id="stop324" />
			<stop
   offset="0.855"
   style="stop-color:#D7BE97"
   id="stop326" />
		</radialGradient>
		<polygon
   fill="url(#SVGID_21_)"
   points="963.915,806.284 710.845,879.469 945.203,796.908   "
   id="polygon329" />
		<radialGradient
   id="SVGID_22_"
   cx="826.7393"
   cy="826.3145"
   r="134.2126"
   gradientUnits="userSpaceOnUse">
			<stop
   offset="0.1341"
   style="stop-color:#FFFCDD"
   id="stop331" />
			<stop
   offset="0.3843"
   style="stop-color:#FEF8DA"
   id="stop333" />
			<stop
   offset="0.5336"
   style="stop-color:#F8EFD0"
   id="stop335" />
			<stop
   offset="0.6563"
   style="stop-color:#EFE2C1"
   id="stop337" />
			<stop
   offset="0.7641"
   style="stop-color:#E4D1AD"
   id="stop339" />
			<stop
   offset="0.855"
   style="stop-color:#D7BE97"
   id="stop341" />
		</radialGradient>
		<polygon
   fill="url(#SVGID_22_)"
   points="944.135,796.879 709.344,864.764 926.359,787.865   "
   id="polygon344" />
	</g>
	<linearGradient
   id="SVGID_23_"
   gradientUnits="userSpaceOnUse"
   x1="699.9995"
   y1="1113.625"
   x2="699.9995"
   y2="1581.0621">
		<stop
   offset="0.1341"
   style="stop-color:#00B1A5"
   id="stop348" />
		<stop
   offset="0.3566"
   style="stop-color:#00ADA2"
   id="stop350" />
		<stop
   offset="0.4893"
   style="stop-color:#00A59B"
   id="stop352" />
		<stop
   offset="0.5985"
   style="stop-color:#009992"
   id="stop354" />
		<stop
   offset="0.6949"
   style="stop-color:#008985"
   id="stop356" />
		<stop
   offset="0.782"
   style="stop-color:#007675"
   id="stop358" />
		<stop
   offset="0.855"
   style="stop-color:#006163"
   id="stop360" />
	</linearGradient>
	<polygon
   fill="url(#SVGID_23_)"
   points="0,1980 1400,1980 1400,973.623 0,1378.404  "
   id="polygon363" />
	<rect
   y="1509.08"
   fill="#431F45"
   width="1400"
   height="470.92"
   id="rect365" />
	<g
   id="g377">
		<polygon
   opacity="0.3"
   fill="#FFFDEB"
   points="0,1552.396 0,1606.416 1400,1201.635 1400,1147.614   "
   id="polygon367" />
		<polygon
   opacity="0.3"
   fill="#FFFDEB"
   points="0,1628.793 0,1670.665 1400,1265.884 1400,1224.012   "
   id="polygon369" />
		<polygon
   opacity="0.3"
   fill="#FFFDEB"
   points="0,1705.189 0,1734.914 1400,1330.133 1400,1300.408   "
   id="polygon371" />
		<polygon
   opacity="0.3"
   fill="#FFFDEB"
   points="0,1781.586 0,1799.162 1400,1394.381 1400,1376.805   "
   id="polygon373" />
		<polygon
   opacity="0.3"
   fill="#FFFDEB"
   points="0,1857.982 0,1863.411 1400,1458.63 1400,1453.201   "
   id="polygon375" />
	</g>
	<path
   fill="#00B1A5"
   d="M1282.053,853.059c-2.908-1.085-60.367-19.05-190.781-59.781l-0.807-0.252   c-76.537-23.905-155.572-48.589-171.486-53.663c-1.293-1.211-3.076-2.978-4.266-4.157c-12.783-12.67-23.631-22.413-36.594-22.743   c-4.539-1.982-9.426-2.985-14.559-2.985c-2.832,0-5.707,0.314-8.533,0.925c-2.291-3.664-4.66-7.387-6.977-11.027l-2.512-3.952   c-0.262-0.454-0.545-0.9-0.846-1.33c-2.176-3.425-3.914-6.194-5.416-8.625l-0.148-0.245c-4.924-8.175-12.354-12.718-22.719-13.892   c-16.014-1.81-42.205-7.643-47.844-9.174c-0.211-0.09-0.422-0.176-0.635-0.258c-29.654-11.378-74.669-28.656-79.291-30.45   c-3.298-1.488-6.569-2.835-9.814-4.073c2.039-1.014,3.93-2.371,5.602-4.041c6.32-6.313,6.879-16.334,1.3-23.311l-0.09-0.113   c-7.74-9.678-15.723-19.66-20.388-27.438c0.158-3.441,0.473-6.899,0.779-10.271c1.477-16.226,3.151-34.612-11.037-55.999   c-12.501-19.582-30.851-34.726-50.355-41.554c-15.252-5.34-30.374-8.047-44.945-8.047c-14.83,0-29.316,2.802-43.059,8.329   c-22.87,9.203-40.382,24.912-50.642,45.427c-1.296,2.591-1.924,5.496-1.837,8.384c-0.939,1.81-3.052,5.027-3.936,6.374   c-4.589,6.988-10.624,16.177-10.139,26.77c-2.397-0.541-4.966-1.219-7.777-1.962c-8.732-2.308-18.63-4.923-30.939-5.29   c-0.566-0.017-1.133-0.025-1.696-0.025c-24.41,0-47.529,15.673-65.098,44.132c-12.591,20.397-21.131,45.962-21.951,65.555   c-3.919,13.007-1.163,23.537,1.065,32.047c1.986,7.586,2.812,11.279,0.867,16.406c-2.489,4.579-3.375,11.042-6.37,54.341   c-1.822,26.331-3.812,59.041-5.411,85.324l-0.015,0.247c-0.923,15.179-1.795,29.517-2.366,38.099   c-0.069,1.028-0.047,2.071,0.067,3.098c0.516,4.65-0.906,10.618-2.411,16.936c-3.034,12.729-7.515,31.525,5.123,48.999   c-16.118,55.741-18.777,94.21,9.061,145.542c14.114,26.025,40.125,45.863,79.417,60.535c2.474,27.297,6.545,50.193,12.886,72.258   c-5.322-0.51-10.538-0.768-15.522-0.768c-24.993,0-42.911,6.359-61.883,13.092c-20.11,7.141-42.904,15.23-81.422,18.145   c-0.364,0.029-0.728,0.068-1.125,0.125c-6.219,0.887-10.711,1.283-14.565,1.283c-6.423,0-10.901-1.115-15.453-3.846   c-1.312-0.787-2.725-1.402-4.206-1.826c-1.473-0.42-2.982-0.867-4.53-1.326c-10.61-3.141-22.636-6.701-36.417-6.701   c-11.878,0-22.58,2.658-32.719,8.129c-5.668,3.059-9.189,8.959-9.189,15.4v201.518c0,7.225,4.537,13.799,11.289,16.361   c3.569,1.355,7.433,2.043,11.481,2.043c19.654,0,40.149-15.83,43.182-33.283c4.008-17.861,9.994-35.215,19.951-57.816   c2.123-2.764,4.765-6.066,7.784-9.84c7.308-9.135,16.402-20.504,23.344-30.916c0.4-0.602,0.766-1.23,1.084-1.869   c0.428-0.854,0.794-1.664,1.108-2.42c0.385-0.027,0.769-0.057,1.153-0.086c7.441-0.549,15.135-1.117,23.247-1.117   c6.14,0,12.007,0.32,17.971,0.982c0.365,0.039,0.732,0.068,1.16,0.088c4.889,0.229,48.313,2.285,67.534,4.006   c13.342,1.195,26.039,2.877,38.329,4.506c23.536,3.119,47.873,6.342,77.554,6.342c7.12,0,14.416-0.188,21.656-0.557   c7.226-0.344,19.468-4.674,24.998-7.594c12.675-5.947,16.78-24.51,17.32-27.238c0.354-1.258,2.189-5.559,3.422-8.445   c4.814-11.281,12.872-30.16,20.572-59.418c1.106-4.209,1.901-12.012,3.08-24.361c0.237-2.484,0.479-5.016,0.7-7.186   c4.012,1.381,7.933,2.59,11.586,3.719c2.282,0.703,4.505,1.389,6.469,2.027c7.797,2.625,24.237,7.52,38.827,11.863   c8.046,2.395,17.851,5.313,22.436,6.756c3.514,2.635,7.355,4.557,10.798,6.277c1.147,0.574,2.319,1.16,3.386,1.73   c2.613,4.719,5.124,9.824,7.764,15.193c12.95,26.34,29.067,59.121,72.938,73.447c23.799,7.77,64.436,38.609,79.738,50.221   l0.127,0.096c1.482,1.127,2.77,2.102,3.836,2.904c12.174,9.137,23.076,24.973,28.979,33.547c0.051,0.074,0.102,0.146,0.15,0.221   c-0.578,2.664-1.053,5.875-0.902,9.633c0.229,5.713,1.725,13.582,3.369,21.82l0.246,1.24c0.037,0.221,0.08,0.436,0.131,0.662   c0.098,0.492,0.184,0.936,0.244,1.264c0.055,0.518,0.133,1.039,0.234,1.555c0.932,4.744,3.771,19.186,17.467,28.395   c2.896,1.947,6.273,2.977,9.762,2.977h173.191c7.748,0,17.484-1.26,24.184-10.982c1.078-1.33,1.951-2.805,2.6-4.393   c5.426-13.287,5.52-24.955,0.277-34.682c-4.791-8.898-13.352-14.791-24.748-17.039c-2.797-0.555-27.115-6.99-36.57-9.674   l-45.369-20.955c-1.557-0.816-4.297-2.379-7.619-4.344c-2.324-5.191-6.77-12.385-14.746-17.205   c-0.275-0.168-0.557-0.326-0.83-0.471c-4.047-2.158-10.922-5.566-16.006-8.039c-3.146-1.529-5.641-2.732-7.586-3.639   c-1.219-1.463-2.848-3.41-4.83-5.777c-4.639-5.537-11.221-13.379-18.98-22.621c-34.768-41.414-92.957-110.729-106.148-127.492   c-8.668-11.01-23.982-32.148-27.904-37.58c-0.951-1.902-1.783-3.695-2.525-5.295c-1.797-3.867-3.492-7.521-5.975-10.91   c-0.246-0.338-0.564-0.789-0.941-1.318l-0.268-0.379c-6.477-9.158-10.643-14.391-15.393-17.502   c-1.016-0.682-1.971-1.266-2.846-1.734c-2.549-1.48-5.215-2.863-7.773-4.154c-1.529-1.537-4.717-5.047-6.957-7.512   c-15.168-16.697-43.402-47.777-86.034-76.604c-8.035-5.436-28.459-18.547-48.21-31.227l-0.302-0.195   c-9.51-6.105-20.004-12.844-27.467-17.678c0.057-0.146,0.114-0.293,0.172-0.439c2.621-6.709,5.862-15.006,4.61-24.732   c0.021-0.346,0.046-0.689,0.075-1.032c0.198-2.376-0.083-4.728-0.837-6.99c-2.076-6.23-5.181-11.951-8.472-17.265   c0.675-1.636,1.232-3.234,1.769-4.919c3.604-8.09,1.236-16.772-1.262-23.482c-0.235-0.632-2.149-5.704-4.609-10.137   c-0.591-5.454-0.905-13.978,0.118-20.236c0.609-0.387,1.205-0.803,1.787-1.249c0.203,0.209,0.406,0.414,0.61,0.614   c11.229,15.339,25.683,30.613,39.891,42.16c0.031,0.044,0.063,0.089,0.093,0.134l0.118,0.17c3.217,4.637,8.017,11.56,15.986,14.371   c0.06,0.032,0.117,0.064,0.172,0.095c3.14,1.731,9.674,5.333,18.679,5.333c3.73,0,7.496-0.621,11.196-1.848   c4.485-1.401,41.049-13.16,66.334-31.461c16.799-12.157,33.652-29.329,51.506-47.518c20.604-20.992,41.877-42.667,65.678-59.738   c3.764,0.688,7.717,0.209,11.209-1.368c1.441-0.184,3.801-0.248,5.037-0.274c1.822,0.152,3.723,0.367,5.729,0.593   c4.424,0.499,8.996,1.014,13.867,1.014c4.744,0,18.158,0.001,30.313-10.668c27.566,10.205,165.18,65.347,177.396,70.263   c57.9,23.297,117.771,47.387,154.998,61.725l0.924,0.356c7.455,2.878,14.498,5.596,22.023,5.598   c8.182,0,19.449-3.155,26.674-18.186c4.816-10.021,10.094-25.61,13.246-34.923l0.141-0.416c0.373-1.1,0.713-2.109,1.025-3.02   C1307.979,878.838,1304.758,861.536,1282.053,853.059z M643.563,720.67c14.726,2.499,28.479,4.6,37.181,5.742   c17.695,2.324,35.141,4.599,44.805,5.859l0.424,0.056c0.508,1.144,1.133,2.225,1.871,3.23c0.154,0.21,0.314,0.419,0.479,0.627   c1.195,1.571,2.666,2.938,4.318,4.025c5.191,6.138,10.865,12.637,14.85,17.014c4.016,6.003,10.156,10.319,18.264,12.839   c3.406,1.634,7.342,3.442,11.576,5.116c-15.857,14.076-35.025,26.411-56.164,36.075c-8.146,3.725-38.467,19.237-43.791,22.006   c-1.285,0.668-2.561,1.24-3.777,1.728c-1.57-2.626-2.94-4.9-3.643-6.041c-1.725-3.317-8.327-23.84-10.158-31.593   c-0.568-2.408-1.409-4.556-2.152-6.453c-0.12-0.307-0.359-0.918-0.592-1.545c0.145-0.477,0.269-0.96,0.372-1.451   C657.802,786.119,665.931,745.989,643.563,720.67z"
   id="path379" />
	<path
   fill="#FFFCDD"
   d="M1279.08,861.022c-2.795-1.043-73.775-23.224-190.344-59.631c-80.311-25.083-163.23-50.981-174.078-54.486   c-1.373-1.146-3.961-3.711-5.928-5.662c-11.6-11.496-21.268-20.289-31.291-20.289c-0.391,0-0.777,0.014-1.158,0.041   c-3.855-1.984-8.182-3.017-12.721-3.017c-4.213,0-8.543,0.915-12.314,2.462c-3.248-5.311-6.857-10.986-10.369-16.504l-2.633-4.142   c-0.182-0.332-0.385-0.651-0.607-0.957c-2.252-3.546-4.045-6.4-5.619-8.948l-0.172-0.281c-2.398-3.985-6.432-8.703-16.389-9.83   c-16.938-1.914-44.682-8.104-49.82-9.615c-0.244-0.12-0.494-0.229-0.75-0.328c-26.299-10.09-76.054-29.187-79.54-30.547   c-13.541-6.132-26.865-9.848-39.754-13.442c-8.371-2.334-16.45-4.587-24.228-7.397c3.775-3.67,7.141-7.784,10.125-12.372   c10.102,5.311,20.117,9.318,29.9,13.232c0.836,0.334,1.717,0.541,2.611,0.614c0.109,0.036,0.218,0.074,0.327,0.11   c1.2,0.4,3.014,1.005,5.288,1.005c3.324,0,6.369-1.286,8.804-3.718c3.245-3.242,3.533-8.406,0.668-11.988l-0.086-0.107   c-8.645-10.81-17.563-21.961-22.332-30.619c0.104-4.493,0.504-8.897,0.894-13.175c1.417-15.571,2.882-31.672-9.699-50.595   c-11.497-18.038-28.272-31.946-46.038-38.166c-14.346-5.023-28.522-7.57-42.136-7.57c-13.738,0-27.158,2.596-39.886,7.715   c-20.915,8.417-36.895,22.713-46.213,41.343c-0.869,1.738-1.151,3.708-0.809,5.618c-0.147,1.913-3.467,6.967-5.461,10.004   c-4.995,7.606-10.656,16.229-8.158,25.507c0.617,2.293,1.674,4.381,3.159,6.253c-0.906,0.077-1.823,0.115-2.758,0.115   c-6.133,0-12.297-1.628-19.435-3.514c-8.292-2.191-17.689-4.674-29.017-5.011c-0.484-0.014-0.968-0.021-1.448-0.021   c-21.353,0-41.902,14.24-57.864,40.097c-12.054,19.526-20.267,44.399-20.729,62.538c-3.688,11.183-1.292,20.332,0.832,28.446   c2.04,7.791,3.668,14.006,0.335,22.228c-1.868,3.15-2.797,11.016-5.581,51.26c-1.825,26.378-3.818,59.159-5.421,85.5   c-0.968,15.914-1.805,29.657-2.37,38.153c-0.035,0.53-0.023,1.063,0.035,1.591c0.679,6.12-0.909,12.785-2.591,19.843   c-3.215,13.488-7.146,29.995,6.253,45.18c-16.899,57.009-19.722,93.818,7.134,143.337c17.642,32.529,52.812,48.902,79.95,58.449   c2.712,33.395,7.785,60.389,16.227,86.441c-0.111,0.781-0.158,1.564-0.15,2.342c-3.233-0.754-6.804-1.391-10.693-1.793   c-5.517-0.572-10.908-0.861-16.024-0.861c-23.53,0-39.985,5.84-59.039,12.604c-20.613,7.316-43.978,15.609-83.596,18.607   c-0.198,0.016-0.396,0.037-0.593,0.064c-6.63,0.947-11.493,1.369-15.768,1.369c-7.989,0-13.92-1.514-19.831-5.061   c-0.676-0.406-1.402-0.721-2.16-0.938c-1.499-0.428-3.036-0.883-4.609-1.348c-10.057-2.979-21.456-6.354-34.006-6.354   c-10.434,0-19.815,2.326-28.682,7.109c-2.912,1.57-4.727,4.611-4.727,7.92v201.518c0,3.738,2.311,7.088,5.806,8.414   c2.604,0.988,5.451,1.49,8.465,1.49c15.553,0,32.649-13.023,34.838-26.42c4.181-18.713,10.462-36.889,20.928-60.537   c2.273-2.992,5.184-6.631,8.511-10.789c7.206-9.008,16.175-20.219,22.907-30.318c0.206-0.309,0.394-0.631,0.56-0.963   c1.221-2.439,1.777-4.34,2.183-5.729c0.114-0.391,0.205-0.699,0.3-0.965c2.259-0.152,4.505-0.318,6.704-0.482   c7.61-0.563,15.479-1.145,23.924-1.145c6.454,0,12.627,0.336,18.874,1.031c0.191,0.02,0.385,0.035,0.577,0.045   c0.474,0.021,47.629,2.213,67.973,4.033c13.493,1.209,26.295,2.904,38.676,4.545c23.266,3.082,47.324,6.27,76.448,6.27   c6.977,0,14.138-0.184,21.253-0.547c5.688-0.27,16.889-4.16,21.619-6.721c9.237-4.141,12.746-21.176,12.78-21.354   c0.296-1.543,2.06-5.676,3.926-10.051c4.725-11.068,12.63-29.592,20.17-58.242c0.939-3.574,1.734-11.43,2.84-23.008   c0.452-4.744,0.882-9.238,1.214-11.781c0.502-2.125,0.965-4.182,1.391-6.178c6.923,2.941,14.065,5.146,20.646,7.178   c2.328,0.717,4.595,1.416,6.677,2.096c7.669,2.582,24.07,7.463,38.54,11.771c9.606,2.859,20.339,6.055,24.059,7.275   c3.116,2.584,6.886,4.469,10.55,6.301c2.024,1.012,4.102,2.051,5.834,3.111c3.155,5.486,6.072,11.42,9.144,17.666   c12.883,26.203,27.484,55.904,67.947,69.117c25.162,8.213,66.627,39.682,82.238,51.529c1.525,1.156,2.844,2.158,3.93,2.973   c13.281,9.969,24.697,26.551,30.83,35.461c0.926,1.344,1.695,2.463,2.363,3.408c-0.039,0.156-0.08,0.314-0.121,0.471   c-0.725,2.797-1.627,6.275-1.455,10.52c0.203,5.094,1.697,12.918,3.211,20.498c0.096,0.48,0.195,0.979,0.289,1.455   c0.004,0.023,0.006,0.047,0.01,0.068c0.018,0.109,0.047,0.215,0.068,0.324c0.152,0.775,0.283,1.457,0.348,1.836   c0.027,0.354,0.076,0.709,0.145,1.059c1.328,6.754,4.209,16.486,13.867,22.98c1.484,0.998,3.232,1.531,5.021,1.531h173.191   c8.697,0,13.715-2.174,17.318-7.5l0.076-0.111c0.637-0.738,1.15-1.574,1.52-2.477c4.418-10.822,4.643-20.053,0.664-27.439   c-3.549-6.588-10.094-10.99-18.918-12.73c-3.408-0.676-29.236-7.543-37.883-10.018l-46.152-21.316   c-2.637-1.367-7.518-4.244-10.672-6.133c-1.998-5.551-6.002-11.943-12.35-15.779c-0.139-0.084-0.279-0.164-0.422-0.24   c-3.939-2.098-10.707-5.453-15.727-7.895c-4.402-2.141-7.234-3.498-9.166-4.359c-0.203-0.246-0.412-0.498-0.627-0.754   c-1.256-1.512-3.096-3.711-5.422-6.488c-4.639-5.537-11.217-13.375-18.975-22.615c-34.801-41.453-93.047-110.834-106.316-127.699   c-9.26-11.76-25.748-34.576-28.516-38.412c-1.135-2.238-2.094-4.303-2.947-6.141c-1.684-3.629-3.141-6.764-5.119-9.467   c-0.326-0.445-0.768-1.072-1.295-1.814c-5.736-8.113-9.553-12.984-13.148-15.324c-0.633-0.426-1.475-0.965-2.281-1.389   c-2.766-1.613-5.729-3.125-8.566-4.545c-1.381-1.193-4.904-5.072-8.318-8.83c-14.93-16.436-42.717-47.025-84.509-75.283   c-7.931-5.363-28.321-18.455-48.041-31.115c-12.582-8.08-26.425-16.967-33.444-21.566c0.685-2.287,1.589-4.602,2.523-6.992   c2.464-6.307,5.239-13.41,3.992-21.281c0.038-0.703,0.081-1.404,0.14-2.098c0.102-1.215-0.045-2.438-0.431-3.595   c-2.245-6.738-6.054-13.139-10.096-19.34c1.685-3.136,2.603-5.691,3.515-8.609c2.592-5.318,0.731-12.022-1.285-17.438   c-0.911-2.446-2.884-7.127-4.871-10.338c-0.839-6.236-1.664-20.103,0.946-28.745c4.243-1.612,7.384-5.013,9.686-8.832   c2.248,3.59,4.429,6.369,6.534,8.323c11.15,15.354,25.556,30.55,39.744,41.922c0.3,0.422,0.605,0.865,0.919,1.317   c2.993,4.315,6.696,9.653,12.383,11.381c0.234,0.122,0.606,0.326,0.895,0.485c2.712,1.495,7.761,4.277,14.575,4.277   c2.841,0,5.729-0.483,8.589-1.438c2.685-0.837,39.38-12.467,63.957-30.256c16.223-11.74,32.836-28.666,50.424-46.586   c21.855-22.268,44.441-45.28,70.275-63.145c1.281,0.624,2.926,1.172,4.902,1.172c1.785,0,3.516-0.458,5.061-1.321   c2.188-0.521,5.875-0.598,8.012-0.639c2.084,0.165,4.193,0.402,6.418,0.653c4.191,0.472,8.523,0.96,12.918,0.96   c7.572,0,18.695-1.253,28.156-12.012c25.676,9.302,169.953,67.082,182.725,72.221c57.887,23.291,117.742,47.375,154.883,61.68   l0.928,0.357c6.988,2.697,13.023,5.026,18.961,5.027h0.002c8.352,0,14.75-4.498,19.014-13.368   c4.59-9.551,9.764-24.835,12.855-33.967c0.43-1.272,0.822-2.43,1.172-3.452C1297.41,883.5,1299.891,868.792,1279.08,861.022z    M633.849,722.904c-0.29-0.263-0.576-0.537-0.866-0.813c-1.063-1.012-2.346-2.233-4.024-3.403   c-3.906-3.88-8.008-7.729-11.999-11.466c22.096,4.286,49.611,8.757,64.892,10.763c17.692,2.323,35.136,4.598,44.8,5.858   c1.52,0.199,2.848,0.372,3.951,0.516c0.791,1.008,1.719,2.161,2.729,3.398c0.287,0.97,0.734,1.909,1.367,2.771   c0.109,0.15,0.225,0.3,0.344,0.449c0.004,0.006,0.01,0.011,0.014,0.017c0.855,1.141,1.941,2.024,3.15,2.631   c5.484,6.51,11.869,13.833,16.027,18.376l0.154,0.24c2.986,4.611,7.848,7.931,14.459,9.876c6.828,3.293,14.844,6.862,23.092,8.923   c0.564,0.141,1.141,0.227,1.721,0.257c-18.297,18.966-41.896,35.314-68.957,47.687c-8,3.659-38.108,19.063-43.404,21.817   c-4.268,2.219-8.488,3.581-11.541,4.357c-0.421-0.713-0.866-1.463-1.319-2.227c-2.39-4.022-4.888-8.182-5.806-9.667   c-2.145-3.604-9.277-26.21-11.107-33.958c-0.429-1.819-1.122-3.59-1.793-5.304c-0.563-1.435-1.573-4.016-1.648-5.188   c0.48-0.826,0.827-1.725,1.026-2.663C649.195,785.738,657.604,744.496,633.849,722.904z"
   id="path381" />
	<linearGradient
   id="SVGID_24_"
   gradientUnits="userSpaceOnUse"
   x1="594.0396"
   y1="799.9302"
   x2="747.0317"
   y2="1251.4082">
		<stop
   offset="0.1341"
   style="stop-color:#EC008C"
   id="stop383" />
		<stop
   offset="0.3828"
   style="stop-color:#E6008A"
   id="stop385" />
		<stop
   offset="0.5312"
   style="stop-color:#D90187"
   id="stop387" />
		<stop
   offset="0.6533"
   style="stop-color:#C70482"
   id="stop389" />
		<stop
   offset="0.7611"
   style="stop-color:#B0087B"
   id="stop391" />
		<stop
   offset="0.8584"
   style="stop-color:#940972"
   id="stop393" />
		<stop
   offset="0.9401"
   style="stop-color:#790668"
   id="stop395" />
	</linearGradient>
	<path
   fill-rule="evenodd"
   clip-rule="evenodd"
   fill="url(#SVGID_24_)"
   d="M742.252,725.591l0.002-0.001   c-0.098-0.13-0.207-0.257-0.303-0.388C742.049,725.333,742.156,725.462,742.252,725.591z M882.42,1471.295   c0.002,0.033,0.01,0.057,0.014,0.088l-0.012-0.088H882.42z M1048.395,848.846c-0.023-0.012-0.057-0.022-0.082-0.032   c-0.004,0-0.004,0-0.004,0C1048.338,848.824,1048.371,848.834,1048.395,848.846z M1275.932,869.454   c-5.42-2.023-364.439-113.837-365.439-114.454c-6.227-3.852-26.047-29.311-35.813-24.427c-9.76-7.321-22.705-1.752-25.314,1.693   c-2.443,2.439-3.982-1.693-3.982-4.133c-4.473-7.46-9.863-15.834-15.049-24.006l0.197,0.619c-0.168-0.252-0.326-0.487-0.486-0.728   l0.289,0.108c-2.047-3.222-4.061-6.412-5.973-9.504c-1.17-1.894-2.635-5.077-9.916-5.901c-19.49-2.202-53.414-9.956-52.783-10.483   c0,0-79.55-30.522-79.838-30.666c-26.854-12.208-53.709-14.647-78.12-26.855c12.205-7.322,19.529-17.091,24.411-26.854   c12.207,7.326,24.412,12.206,36.619,17.089c2.442,0,4.882,2.442,7.326,0c-9.764-12.208-19.533-24.414-24.415-34.176   c0-21.973,7.324-39.062-7.323-61.031c-9.146-14.379-23.87-28.419-41.469-34.581c-32.894-11.517-58.132-7.062-75.688,0   c-17.105,6.883-32.474,18.925-41.523,37.02c2.443,12.208-26.853,31.736-7.324,41.501c-2.438,2.439-2.438,7.325-4.882,9.765   c-19.526,4.882-34.553-6.61-58.589-7.325c-41.696-1.24-70.794,63.472-70.794,95.209c-7.324,19.529,9.766,31.735,0,53.708   c-2.442,2.439-9.766,134.266-12.204,170.884c2.438,21.972-17.091,43.941,4.88,63.47c-17.089,56.15-21.987,92.047,4.882,141.592   c16.541,30.5,51.268,46.381,80.563,56.145c2.439,34.184,7.323,63.471,17.089,92.768c-2.442,4.883,4.296,13.943,4.477,16.885   c-4.989-2.139-13.489-5.855-25.634-7.115c-58.937-6.109-72.556,23.98-157.052,30.373c-17.089,2.439-29.296,2.439-41.502-4.885   c-16.963-4.844-38.74-13.094-60.553-1.326v201.518c11.31,4.293,29.765-7.537,31.259-18.18   c4.882-21.971,12.207-41.504,21.971-63.471c7.323-9.76,21.973-26.855,31.736-41.502c2.441-4.877,1.05-6.52,5.928-11.395   c16.792-0.951,33.132-3.25,55.098-0.811c0,0,47.584,2.199,68.359,4.061c45.052,4.033,79.733,13.063,135.146,10.24   c3.431-0.162,15.469-3.887,18.159-5.867c3.044-0.832,6.961-10.375,7.829-14.912c1.426-7.439,13.146-26.764,24.23-68.887   c1.319-5.016,2.924-27.107,3.897-34.141c1.458-6.131,2.692-12.146,3.592-17.994c11.262,6.932,25.451,10.482,36.854,14.201   c14.764,4.971,63.619,18.957,64.481,19.75c4.162,4.16,12.588,6.75,18.345,10.895c17.265,28.986,26.133,69.211,73.168,84.572   c29.01,9.469,75.844,46.146,88.777,55.859c19.449,14.596,34.418,41.053,37.348,43.684c-0.158,3.857-2.346,7.928-2.141,13.014   c0.285,7.141,4.021,23.092,3.908,23.863c1.361,6.926,3.824,13.055,10.059,17.248h173.191c9.08,0,9.08-2.9,10.582-4.492   c7.369-18.045-0.867-25.807-11.672-27.938c-4.104-0.814-31.908-8.25-39.283-10.387l-46.955-21.688   c-4.4-2.258-14.176-8.201-14.385-8.342c-0.879-4.404-4.023-10.744-9.338-13.955c-7.076-3.77-25.879-12.896-26.1-12.688   c-0.063-0.055-0.121-0.105-0.186-0.166c0.057-0.24-113.469-134.781-132.787-159.332c-10.318-13.107-29.146-39.275-29.146-39.275   c-3.508-6.826-5.264-11.77-7.623-14.994c-2.111-2.881-8.764-12.809-12.143-14.945c0,0-1.098-0.746-1.643-1.002   c-2.715-1.594-5.717-3.119-8.936-4.725c-6.244-3.754-37.435-46.684-93.179-84.377c-15.771-10.666-83.896-53.859-86.472-56.064   c1.339-12.031,9.644-21.732,7.501-31.762c0.059-1.15,0.118-2.299,0.213-3.431c-2.441-7.327-7.323-14.647-12.209-21.969   c3.672-5.503,4.585-8.262,5.851-12.397c2.624-3.532-4.321-18.269-6.141-20.411c0.006-0.004,0.01-0.008,0.016-0.01   c-0.095-0.094-0.177-0.194-0.27-0.288c-0.104-0.114-3.966-24.908,2.265-38.541c1.173-0.747,2.218-1.351,3.145-1.999   c0.043,0.039,0.091,0.077,0.134,0.116c7.556-1.758,10.65-18.828,10.576-18.871c0.303-0.87,1.231-4.379,1.494-5.177   c2.906,7.002,9.172,20.952,14.665,25.511c0.045,0.037,0.099,0.083,0.146,0.122c10.667,14.853,24.846,30.017,39.263,41.462   c0.011-0.047,0.023-0.098,0.033-0.145c0.097,0.129,0.193,0.262,0.293,0.394c-0.109-0.083-0.217-0.165-0.326-0.249   c0.109,0.084,0.221,0.167,0.328,0.252c2.716,3.637,6.067,9.534,9.519,10.427c2.768,0.711,8.708,6.653,18.527,3.327   c0,0,37.378-11.562,61.445-28.981c35.219-25.487,73.523-77.579,122.221-110.781c4.883-4.885,7.328,2.439,9.764,0   c3.547-1.33,8.809-1.386,12.223-1.454c14.557,1.084,29.352,5.584,40.678-7.568c1.115-1.301,2.201-2.801,3.25-4.545   c48.568,16.749,256.57,102.491,344.15,136.224c13.508,5.205,21.693,8.71,27.557-3.484c4.967-10.335,10.797-28.169,13.619-36.424   C1289.072,880.065,1287.811,873.889,1275.932,869.454z M965.129,1419.135c0.346,0.23,0.711,0.449,1.064,0.678v0.012   c-0.355-0.234-0.719-0.455-1.074-0.686C965.119,1419.135,965.119,1419.135,965.129,1419.135z M648.909,823.062   c-0.039-0.09-0.082-0.183-0.12-0.272c0.04,0.092,0.079,0.18,0.12,0.271C648.909,823.06,648.909,823.061,648.909,823.062z    M809.057,767.622c-16.869,20.192-42.729,42.227-80.611,59.548c-7.551,3.453-37.057,18.528-42.996,21.617   c-9.804,5.098-20.005,6.606-20.43,6.176c0.063-0.127-8.234-14.038-10.05-16.975c-3.074-4.971-10.643-29.998-12.206-36.617   c-1.068-4.533-5.913-11.872-2.46-17.083c0.208-0.983,7.06-36.937-12.501-54.716c-1.401-1.271-2.733-2.733-4.569-3.881   c-12.206-12.206-26.854-24.412-34.175-34.174c11.826,4.356,67.743,14.104,93.964,17.546c26.485,3.478,52.411,6.848,52.511,6.866   c1.602,2.678,17.1,21.063,25.846,30.552c0.191,0.294,0.379,0.591,0.563,0.871c2.063,3.187,5.768,5.148,10.113,6.322   c7.35,3.566,14.705,6.798,22.064,8.637c0.799,0,2.328-0.176,2.328-0.176c6.123-0.874,10.951-4.975,19.641-7.147   c2.443,0,2.443,2.44,4.885,4.883C817.84,762.334,811.738,764.413,809.057,767.622z M1286.547,883.467   c-0.016-0.093-0.016-0.189-0.041-0.28c0.02,0.086,0.037,0.178,0.053,0.268C1286.555,883.46,1286.551,883.465,1286.547,883.467z"
   id="path398" />
	<linearGradient
   id="SVGID_25_"
   gradientUnits="userSpaceOnUse"
   x1="855.8369"
   y1="632.0742"
   x2="761.3419"
   y2="930.5591">
		<stop
   offset="0.1341"
   style="stop-color:#EC008C"
   id="stop400" />
		<stop
   offset="0.3828"
   style="stop-color:#E6008A"
   id="stop402" />
		<stop
   offset="0.5312"
   style="stop-color:#D90187"
   id="stop404" />
		<stop
   offset="0.6533"
   style="stop-color:#C70482"
   id="stop406" />
		<stop
   offset="0.7611"
   style="stop-color:#B0087B"
   id="stop408" />
		<stop
   offset="0.8584"
   style="stop-color:#940972"
   id="stop410" />
		<stop
   offset="0.9401"
   style="stop-color:#790668"
   id="stop412" />
	</linearGradient>
	<path
   fill-rule="evenodd"
   clip-rule="evenodd"
   fill="url(#SVGID_25_)"
   d="M742.252,725.591l0.002-0.001   c-0.098-0.13-0.207-0.257-0.303-0.388C742.049,725.333,742.156,725.462,742.252,725.591z M882.42,1471.295   c0.002,0.033,0.01,0.057,0.014,0.088l-0.012-0.088H882.42z M1048.395,848.846c-0.023-0.012-0.057-0.022-0.082-0.032   c-0.004,0-0.004,0-0.004,0C1048.338,848.824,1048.371,848.834,1048.395,848.846z M1275.932,869.454   c-5.42-2.023-364.439-113.837-365.439-114.454c-6.227-3.852-26.047-29.311-35.813-24.427c-9.76-7.321-22.705-1.752-25.314,1.693   c-2.443,2.439-3.982-1.693-3.982-4.133c-4.473-7.46-9.863-15.834-15.049-24.006l0.197,0.619c-0.168-0.252-0.326-0.487-0.486-0.728   l0.289,0.108c-2.047-3.222-4.061-6.412-5.973-9.504c-1.17-1.894-2.635-5.077-9.916-5.901c-19.49-2.202-53.414-9.956-52.783-10.483   c0,0-79.55-30.522-79.838-30.666c-26.854-12.208-53.709-14.647-78.12-26.855c12.205-7.322,19.529-17.091,24.411-26.854   c12.207,7.326,24.412,12.206,36.619,17.089c2.442,0,4.882,2.442,7.326,0c-9.764-12.208-19.533-24.414-24.415-34.176   c0-21.973,7.324-39.062-7.323-61.031c-9.146-14.379-23.87-28.419-41.469-34.581c-32.894-11.517-58.132-7.062-75.688,0   c-17.105,6.883-32.474,18.925-41.523,37.02c2.443,12.208-26.853,31.736-7.324,41.501c-2.438,2.439-2.438,7.325-4.882,9.765   c-19.526,4.882-34.553-6.61-58.589-7.325c-41.696-1.24-70.794,63.472-70.794,95.209c-7.324,19.529,9.766,31.735,0,53.708   c-2.442,2.439-9.766,134.266-12.204,170.884c2.438,21.972-17.091,43.941,4.88,63.47c-17.089,56.15-21.987,92.047,4.882,141.592   c16.541,30.5,51.268,46.381,80.563,56.145c2.439,34.184,7.323,63.471,17.089,92.768c-2.442,4.883,4.296,13.943,4.477,16.885   c-4.989-2.139-13.489-5.855-25.634-7.115c-58.937-6.109-72.556,23.98-157.052,30.373c-17.089,2.439-29.296,2.439-41.502-4.885   c-16.963-4.844-38.74-13.094-60.553-1.326v201.518c11.31,4.293,29.765-7.537,31.259-18.18   c4.882-21.971,12.207-41.504,21.971-63.471c7.323-9.76,21.973-26.855,31.736-41.502c2.441-4.877,1.05-6.52,5.928-11.395   c16.792-0.951,33.132-3.25,55.098-0.811c0,0,47.584,2.199,68.359,4.061c45.052,4.033,79.733,13.063,135.146,10.24   c3.431-0.162,15.469-3.887,18.159-5.867c3.044-0.832,6.961-10.375,7.829-14.912c1.426-7.439,13.146-26.764,24.23-68.887   c1.319-5.016,2.924-27.107,3.897-34.141c1.458-6.131,2.692-12.146,3.592-17.994c11.262,6.932,25.451,10.482,36.854,14.201   c14.764,4.971,63.619,18.957,64.481,19.75c4.162,4.16,12.588,6.75,18.345,10.895c17.265,28.986,26.133,69.211,73.168,84.572   c29.01,9.469,75.844,46.146,88.777,55.859c19.449,14.596,34.418,41.053,37.348,43.684c-0.158,3.857-2.346,7.928-2.141,13.014   c0.285,7.141,4.021,23.092,3.908,23.863c1.361,6.926,3.824,13.055,10.059,17.248h173.191c9.08,0,9.08-2.9,10.582-4.492   c7.369-18.045-0.867-25.807-11.672-27.938c-4.104-0.814-31.908-8.25-39.283-10.387l-46.955-21.688   c-4.4-2.258-14.176-8.201-14.385-8.342c-0.879-4.404-4.023-10.744-9.338-13.955c-7.076-3.77-25.879-12.896-26.1-12.688   c-0.063-0.055-0.121-0.105-0.186-0.166c0.057-0.24-113.469-134.781-132.787-159.332c-10.318-13.107-29.146-39.275-29.146-39.275   c-3.508-6.826-5.264-11.77-7.623-14.994c-2.111-2.881-8.764-12.809-12.143-14.945c0,0-1.098-0.746-1.643-1.002   c-2.715-1.594-5.717-3.119-8.936-4.725c-6.244-3.754-37.435-46.684-93.179-84.377c-15.771-10.666-83.896-53.859-86.472-56.064   c1.339-12.031,9.644-21.732,7.501-31.762c0.059-1.15,0.118-2.299,0.213-3.431c-2.441-7.327-7.323-14.647-12.209-21.969   c3.672-5.503,4.585-8.262,5.851-12.397c2.624-3.532-4.321-18.269-6.141-20.411c0.006-0.004,0.01-0.008,0.016-0.01   c-0.095-0.094-0.177-0.194-0.27-0.288c-0.104-0.114-3.966-24.908,2.265-38.541c1.173-0.747,2.218-1.351,3.145-1.999   c0.043,0.039,0.091,0.077,0.134,0.116c7.556-1.758,10.65-18.828,10.576-18.871c0.303-0.87,1.231-4.379,1.494-5.177   c2.906,7.002,9.172,20.952,14.665,25.511c0.045,0.037,0.099,0.083,0.146,0.122c10.667,14.853,24.846,30.017,39.263,41.462   c0.011-0.047,0.023-0.098,0.033-0.145c0.097,0.129,0.193,0.262,0.293,0.394c-0.109-0.083-0.217-0.165-0.326-0.249   c0.109,0.084,0.221,0.167,0.328,0.252c2.716,3.637,6.067,9.534,9.519,10.427c2.768,0.711,8.708,6.653,18.527,3.327   c0,0,37.378-11.562,61.445-28.981c35.219-25.487,73.523-77.579,122.221-110.781c4.883-4.885,7.328,2.439,9.764,0   c3.547-1.33,8.809-1.386,12.223-1.454c14.557,1.084,29.352,5.584,40.678-7.568c1.115-1.301,2.201-2.801,3.25-4.545   c48.568,16.749,256.57,102.491,344.15,136.224c13.508,5.205,21.693,8.71,27.557-3.484c4.967-10.335,10.797-28.169,13.619-36.424   C1289.072,880.065,1287.811,873.889,1275.932,869.454z M965.129,1419.135c0.346,0.23,0.711,0.449,1.064,0.678v0.012   c-0.355-0.234-0.719-0.455-1.074-0.686C965.119,1419.135,965.119,1419.135,965.129,1419.135z M648.909,823.062   c-0.039-0.09-0.082-0.183-0.12-0.272c0.04,0.092,0.079,0.18,0.12,0.271C648.909,823.06,648.909,823.061,648.909,823.062z    M809.057,767.622c-16.869,20.192-42.729,42.227-80.611,59.548c-7.551,3.453-37.057,18.528-42.996,21.617   c-9.804,5.098-20.005,6.606-20.43,6.176c0.063-0.127-8.234-14.038-10.05-16.975c-3.074-4.971-10.643-29.998-12.206-36.617   c-1.068-4.533-5.913-11.872-2.46-17.083c0.208-0.983,7.06-36.937-12.501-54.716c-1.401-1.271-2.733-2.733-4.569-3.881   c-12.206-12.206-26.854-24.412-34.175-34.174c11.826,4.356,67.743,14.104,93.964,17.546c26.485,3.478,52.411,6.848,52.511,6.866   c1.602,2.678,17.1,21.063,25.846,30.552c0.191,0.294,0.379,0.591,0.563,0.871c2.063,3.187,5.768,5.148,10.113,6.322   c7.35,3.566,14.705,6.798,22.064,8.637c0.799,0,2.328-0.176,2.328-0.176c6.123-0.874,10.951-4.975,19.641-7.147   c2.443,0,2.443,2.44,4.885,4.883C817.84,762.334,811.738,764.413,809.057,767.622z M1286.547,883.467   c-0.016-0.093-0.016-0.189-0.041-0.28c0.02,0.086,0.037,0.178,0.053,0.268C1286.555,883.46,1286.551,883.465,1286.547,883.467z"
   id="path415" />
	<g
   id="g451">
		<linearGradient
   id="SVGID_26_"
   gradientUnits="userSpaceOnUse"
   x1="651.207"
   y1="789.0098"
   x2="802.518"
   y2="1235.5264">
			<stop
   offset="0.1341"
   style="stop-color:#EC008C"
   id="stop417" />
			<stop
   offset="0.3828"
   style="stop-color:#E6008A"
   id="stop419" />
			<stop
   offset="0.5312"
   style="stop-color:#D90187"
   id="stop421" />
			<stop
   offset="0.6533"
   style="stop-color:#C70482"
   id="stop423" />
			<stop
   offset="0.7611"
   style="stop-color:#B0087B"
   id="stop425" />
			<stop
   offset="0.8584"
   style="stop-color:#940972"
   id="stop427" />
			<stop
   offset="0.9401"
   style="stop-color:#790668"
   id="stop429" />
		</linearGradient>
		<path
   fill="url(#SVGID_26_)"
   d="M882.42,1471.295c0.002,0.033,0.01,0.057,0.014,0.088l-0.012-0.088H882.42z"
   id="path432" />
		<linearGradient
   id="SVGID_27_"
   gradientUnits="userSpaceOnUse"
   x1="410.7324"
   y1="862.0479"
   x2="563.7246"
   y2="1313.5259">
			<stop
   offset="0.1341"
   style="stop-color:#EC008C"
   id="stop434" />
			<stop
   offset="0.3828"
   style="stop-color:#E6008A"
   id="stop436" />
			<stop
   offset="0.5312"
   style="stop-color:#D90187"
   id="stop438" />
			<stop
   offset="0.6533"
   style="stop-color:#C70482"
   id="stop440" />
			<stop
   offset="0.7611"
   style="stop-color:#B0087B"
   id="stop442" />
			<stop
   offset="0.8584"
   style="stop-color:#940972"
   id="stop444" />
			<stop
   offset="0.9401"
   style="stop-color:#790668"
   id="stop446" />
		</linearGradient>
		<path
   fill="url(#SVGID_27_)"
   d="M557.302,886.404c0.043,0.039,0.091,0.077,0.134,0.116c7.556-1.758,10.65-18.828,10.576-18.871    c0.303-0.87,1.231-4.379,1.494-5.177c2.906,7.002,9.172,20.952,14.665,25.511c0.045,0.037,0.099,0.083,0.146,0.122    c10.667,14.853,24.846,30.017,39.263,41.462c0.011-0.047,0.023-0.098,0.033-0.145c0.097,0.129,0.193,0.262,0.293,0.394    c-0.109-0.083-0.217-0.165-0.326-0.249c0.109,0.084,0.221,0.167,0.328,0.252c2.716,3.637,6.067,9.534,9.519,10.427    c2.768,0.711,8.708,6.653,18.527,3.327c0,0,37.378-11.562,61.445-28.981c26.678-19.306,55.131-53.873,88.525-83.936    l-51.373-14.853c-6.869,3.954-14.223,7.764-22.105,11.368c-7.551,3.453-37.057,18.528-42.996,21.617    c-9.804,5.098-20.005,6.606-20.43,6.176c0.063-0.127-8.234-14.038-10.05-16.975c-3.074-4.971-10.643-29.998-12.206-36.617    c-1.068-4.533-5.913-11.872-2.46-17.083c0.009-0.042,0.034-0.173,0.065-0.343l-297.233-85.939    c-0.121,4.006-0.974,8.294-3.082,13.039c-2.442,2.439-9.766,134.266-12.204,170.884c2.438,21.972-17.091,43.941,4.88,63.47    c-17.089,56.15-21.987,92.047,4.882,141.592c16.541,30.5,51.268,46.381,80.563,56.145c2.439,34.184,7.323,63.471,17.089,92.768    c-2.442,4.883,4.296,13.943,4.477,16.885c-4.989-2.139-13.489-5.855-25.634-7.115c-58.937-6.109-72.556,23.98-157.052,30.373    c-17.089,2.439-29.296,2.439-41.502-4.885c-16.963-4.844-38.74-13.094-60.553-1.326v201.518    c11.31,4.293,29.765-7.537,31.259-18.18c4.882-21.971,12.207-41.504,21.971-63.471c7.323-9.76,21.973-26.855,31.736-41.502    c2.441-4.877,1.05-6.52,5.928-11.395c16.792-0.951,33.132-3.25,55.098-0.811c0,0,47.584,2.199,68.359,4.061    c45.052,4.033,79.733,13.063,135.146,10.24c3.431-0.162,15.469-3.887,18.159-5.867c3.044-0.832,6.961-10.375,7.829-14.912    c1.426-7.439,13.146-26.764,24.23-68.887c1.319-5.016,2.924-27.107,3.897-34.141c1.458-6.131,2.692-12.146,3.592-17.994    c11.262,6.932,25.451,10.482,36.854,14.201c14.764,4.971,63.619,18.957,64.481,19.75c4.162,4.16,12.588,6.75,18.345,10.895    c17.265,28.986,26.133,69.211,73.168,84.572c29.01,9.469,75.844,46.146,88.777,55.859c19.449,14.596,34.418,41.053,37.348,43.684    c-0.158,3.857-2.346,7.928-2.141,13.014c0.285,7.141,4.021,23.092,3.908,23.863c1.361,6.926,3.824,13.055,10.059,17.248h173.191    c9.08,0,9.08-2.9,10.582-4.492c7.369-18.045-0.867-25.807-11.672-27.938c-4.104-0.814-31.908-8.25-39.283-10.387l-46.955-21.688    c-4.4-2.258-14.176-8.201-14.385-8.342c-0.879-4.404-4.023-10.744-9.338-13.955c-7.076-3.77-25.879-12.896-26.1-12.688    c-0.063-0.055-0.121-0.105-0.186-0.166c0.057-0.24-113.469-134.781-132.787-159.332c-10.318-13.107-29.146-39.275-29.146-39.275    c-3.508-6.826-5.264-11.77-7.623-14.994c-2.111-2.881-8.764-12.809-12.143-14.945c0,0-1.098-0.746-1.643-1.002    c-2.715-1.594-5.717-3.119-8.936-4.725c-6.244-3.754-37.435-46.684-93.179-84.377c-15.771-10.666-83.896-53.859-86.472-56.064    c1.339-12.031,9.644-21.732,7.501-31.762c0.059-1.15,0.118-2.299,0.213-3.431c-2.441-7.327-7.323-14.647-12.209-21.969    c3.672-5.503,4.585-8.262,5.851-12.397c2.624-3.532-4.321-18.269-6.141-20.411c0.006-0.004,0.01-0.008,0.016-0.01    c-0.095-0.094-0.177-0.194-0.27-0.288c-0.104-0.114-3.966-24.908,2.265-38.541C555.33,887.656,556.375,887.052,557.302,886.404z     M648.909,823.06c0,0,0,0,0,0.001c-0.039-0.09-0.082-0.183-0.12-0.272C648.829,822.881,648.868,822.97,648.909,823.06z     M965.129,1419.135c0.346,0.23,0.711,0.449,1.064,0.678v0.012c-0.355-0.234-0.719-0.455-1.074-0.686    C965.119,1419.135,965.119,1419.135,965.129,1419.135z"
   id="path449" />
	</g>
	<g
   id="g506">
		<linearGradient
   id="SVGID_28_"
   gradientUnits="userSpaceOnUse"
   x1="882.4268"
   y1="666.6685"
   x2="882.4267"
   y2="1369.7935">
			<stop
   offset="0.1341"
   style="stop-color:#EC008C"
   id="stop453" />
			<stop
   offset="0.3828"
   style="stop-color:#E6008A"
   id="stop455" />
			<stop
   offset="0.5312"
   style="stop-color:#D90187"
   id="stop457" />
			<stop
   offset="0.6533"
   style="stop-color:#C70482"
   id="stop459" />
			<stop
   offset="0.7611"
   style="stop-color:#B0087B"
   id="stop461" />
			<stop
   offset="0.8584"
   style="stop-color:#940972"
   id="stop463" />
			<stop
   offset="0.9401"
   style="stop-color:#790668"
   id="stop465" />
		</linearGradient>
		<path
   fill="url(#SVGID_28_)"
   d="M882.42,1471.295c0.002,0.033,0.01,0.057,0.014,0.088l-0.012-0.088H882.42z"
   id="path468" />
		<linearGradient
   id="SVGID_29_"
   gradientUnits="userSpaceOnUse"
   x1="357.916"
   y1="666.6685"
   x2="357.916"
   y2="1604.8735">
			<stop
   offset="0.1341"
   style="stop-color:#EC008C"
   id="stop470" />
			<stop
   offset="0.3828"
   style="stop-color:#E6008A"
   id="stop472" />
			<stop
   offset="0.5312"
   style="stop-color:#D90187"
   id="stop474" />
			<stop
   offset="0.6533"
   style="stop-color:#C70482"
   id="stop476" />
			<stop
   offset="0.7611"
   style="stop-color:#B0087B"
   id="stop478" />
			<stop
   offset="0.8584"
   style="stop-color:#940972"
   id="stop480" />
			<stop
   offset="0.9401"
   style="stop-color:#790668"
   id="stop482" />
		</linearGradient>
		<path
   fill="url(#SVGID_29_)"
   d="M186.258,1453.172c4.882-21.971,12.207-41.504,21.971-63.471    c7.323-9.76,21.973-26.855,31.736-41.502c2.441-4.877,1.05-6.52,5.928-11.395c16.792-0.951,33.132-3.25,55.098-0.811    c0,0,47.584,2.199,68.359,4.061c45.052,4.033,79.733,13.063,135.146,10.24c3.431-0.162,15.469-3.887,18.159-5.867    c3.044-0.832,6.961-10.375,7.829-14.912c1.426-7.439,13.146-26.764,24.23-68.887c1.319-5.016,2.924-27.107,3.897-34.141    c0.821-3.454,1.562-6.866,2.221-10.237l-121.458,35.117c0.206,0.559,0.341,1.041,0.364,1.419c-0.65-0.278-1.362-0.585-2.132-0.908    l-282.608,81.711v137.762C166.309,1475.645,184.764,1463.814,186.258,1453.172z"
   id="path485" />
		<linearGradient
   id="SVGID_30_"
   gradientUnits="userSpaceOnUse"
   x1="825.4658"
   y1="666.6685"
   x2="825.4658"
   y2="1604.8735">
			<stop
   offset="0.2511"
   style="stop-color:#EC008C"
   id="stop487" />
			<stop
   offset="0.5143"
   style="stop-color:#E7008A"
   id="stop489" />
			<stop
   offset="0.6341"
   style="stop-color:#DB0187"
   id="stop491" />
			<stop
   offset="0.7249"
   style="stop-color:#CB0482"
   id="stop493" />
			<stop
   offset="0.8011"
   style="stop-color:#B5087C"
   id="stop495" />
			<stop
   offset="0.8681"
   style="stop-color:#9C0974"
   id="stop497" />
			<stop
   offset="0.9277"
   style="stop-color:#7F076A"
   id="stop499" />
			<stop
   offset="0.9401"
   style="stop-color:#790668"
   id="stop501" />
		</linearGradient>
		<path
   fill="url(#SVGID_30_)"
   d="M599.059,1222.695c14.764,4.971,63.619,18.957,64.481,19.75c4.162,4.16,12.588,6.75,18.345,10.895    c17.265,28.986,26.133,69.211,73.168,84.572c29.01,9.469,75.844,46.146,88.777,55.859c19.449,14.596,34.418,41.053,37.348,43.684    c-0.158,3.857-2.346,7.928-2.141,13.014c0.285,7.141,4.021,23.092,3.908,23.863c1.361,6.926,3.824,13.055,10.059,17.248h173.191    c9.08,0,9.08-2.9,10.582-4.492c7.369-18.045-0.867-25.807-11.672-27.938c-4.104-0.814-31.908-8.25-39.283-10.387l-46.955-21.688    c-4.4-2.258-14.176-8.201-14.385-8.342c-0.879-4.404-4.023-10.744-9.338-13.955c-7.076-3.77-25.879-12.896-26.1-12.688    c-0.063-0.055-0.121-0.105-0.186-0.166c0.057-0.24-113.469-134.781-132.787-159.332c-10.318-13.107-29.146-39.275-29.146-39.275    c-3.508-6.826-5.264-11.77-7.623-14.994c-2.111-2.881-8.764-12.809-12.143-14.945c0,0-0.559-0.379-1.076-0.689l-174.743,50.523    C580.555,1217.254,590.576,1219.93,599.059,1222.695z M965.129,1419.135c0.346,0.23,0.711,0.449,1.064,0.678v0.012    c-0.355-0.234-0.719-0.455-1.074-0.686C965.119,1419.135,965.119,1419.135,965.129,1419.135z"
   id="path504" />
	</g>
	<path
   opacity="0.3"
   fill="#FFFDEB"
   d="M1400,1064.18l-709.599,205.166c4.648,9.385,9.274,19.198,15.071,28.517L1400,1097.055   V1064.18z"
   id="path508" />
	<path
   opacity="0.3"
   fill="#FFFDEB"
   d="M0,969.516v32.875l646.76-186.998c-1.835-5.962-3.381-11.419-3.996-14.023   c-1.061-4.5-5.833-11.762-2.525-16.966L0,969.516z"
   id="path510" />
	<polygon
   fill="#FDB714"
   points="845.436,1333.178 131.584,1539.573 131.584,1547.762 845.436,1341.366  "
   id="polygon512" />
	<linearGradient
   id="SVGID_31_"
   gradientUnits="userSpaceOnUse"
   x1="686.1484"
   y1="1658.3057"
   x2="1400"
   y2="1658.3057">
		<stop
   offset="0.1341"
   style="stop-color:#00B1A5"
   id="stop514" />
		<stop
   offset="0.3566"
   style="stop-color:#00ADA2"
   id="stop516" />
		<stop
   offset="0.4893"
   style="stop-color:#00A59B"
   id="stop518" />
		<stop
   offset="0.5985"
   style="stop-color:#009992"
   id="stop520" />
		<stop
   offset="0.6949"
   style="stop-color:#008985"
   id="stop522" />
		<stop
   offset="0.782"
   style="stop-color:#007675"
   id="stop524" />
		<stop
   offset="0.855"
   style="stop-color:#006163"
   id="stop526" />
	</linearGradient>
	<polygon
   fill="url(#SVGID_31_)"
   points="1400,1551.014 686.148,1757.409 686.148,1765.598 1400,1559.202  "
   id="polygon529" />
	<polygon
   fill="#431F45"
   points="1144.023,1080.423 733.359,1199.158 733.359,1207.347 1144.023,1088.611  "
   id="polygon531" />
	<polygon
   fill="#FFFCDD"
   points="646.76,320.127 236.095,438.863 236.095,447.051 646.76,328.316  "
   id="polygon533" />
	<polygon
   opacity="0.3"
   fill="#FFFDEB"
   points="953.84,1721.188 543.174,1839.922 543.174,1848.111 953.84,1729.375  "
   id="polygon535" />
	<polygon
   opacity="0.3"
   fill="#FFFDEB"
   points="508.442,174.933 97.776,293.667 97.776,301.857 508.442,183.121  "
   id="polygon537" />
	<polygon
   opacity="0.3"
   fill="#FFFDEB"
   points="605.419,748.063 194.754,866.798 194.754,874.987 605.419,756.251  "
   id="polygon539" />
	<polygon
   opacity="0.3"
   fill="#FFFDEB"
   points="801.1,1297.862 544.997,1371.908 544.997,1377.016 801.1,1302.969  "
   id="polygon541" />
	<polygon
   opacity="0.3"
   fill="#FFFDEB"
   points="673.048,910.458 416.946,984.503 416.946,989.611 673.048,915.564  "
   id="polygon543" />
	<polygon
   opacity="0.3"
   fill="#FFFDEB"
   points="796.971,542.533 1053.073,616.579 1053.073,621.687 796.971,547.64  "
   id="polygon545" />
	<polygon
   opacity="0.3"
   fill="#FFFDEB"
   points="1117.024,518.827 962.336,474.103 962.336,479.209 1117.024,523.934  "
   id="polygon547" />
	<polygon
   fill="#FFFCDD"
   points="687.023,210.707 523.814,257.895 523.814,266.083 687.023,218.895  "
   id="polygon549" />
	<polygon
   fill="#00B1A5"
   points="898.229,340.424 627.965,418.566 627.965,426.754 898.229,348.613  "
   id="polygon551" />
	<polygon
   opacity="0.3"
   fill="#FFFDEB"
   points="1393.463,950.034 469.1,1217.295 469.1,1222.474 1393.463,955.212  "
   id="polygon553" />
	<polygon
   fill="#FDB714"
   points="0,1900.125 780.867,1674.352 780.867,1669.174 0,1894.945  "
   id="polygon555" />
	<path
   fill="#FFFCDD"
   d="M0,0v1980h1400V0H0z M1357,1854c0,45.65-37.35,83-83,83H126c-45.65,0-83-37.35-83-83V126   c0-45.65,37.35-83,83-83h1148c45.65,0,83,37.35,83,83V1854z"
   id="path557" />
	<path
   opacity="0.3"
   fill="#FFFDEB"
   d="M478.146,529.538c-6.464,10.839-17.998,23.064-3.828,30.15   c-1.135,1.135-1.74,2.801-2.312,4.503L1400,295.722v-32.875L478.146,529.538z"
   id="path559" />
</g>
</svg>